<?xml version="1.0" encoding="us-ascii" standalone="no"?><svg xmlns="http://www.w3.org/2000/svg" xmlns:xlink="http://www.w3.org/1999/xlink" contentStyleType="text/css" height="1435px" preserveAspectRatio="none" style="width:2648px;height:1435px;background:#FFFFFF;" version="1.1" viewBox="0 0 2648 1435" width="2648.3333px" zoomAndPan="magnify"><defs/><g><text fill="#000000" font-family="sans-serif" font-size="20.4167" font-weight="bold" lengthAdjust="spacing" textLength="457.9167" x="1085" y="34.3221">Mnemo &#8212; High-Level Components (Layers)</text><!--cluster Clients--><g id="cluster_Clients"><path d="M1355.5208,63.4204 L1431.3542,63.4204 A5.4688,5.4688 0 0 1 1435,67.0662 L1445.2083,96.2158 L1575.7292,96.2158 A3.6458,3.6458 0 0 1 1579.375,99.8617 L1579.375,187.3642 A3.6458,3.6458 0 0 1 1575.7292,191.01 L1355.5208,191.01 A3.6458,3.6458 0 0 1 1351.875,187.3642 L1351.875,67.0662 A3.6458,3.6458 0 0 1 1355.5208,63.4204 " fill="#DDDDDD" style="stroke:#000000;stroke-width:2.1875;"/><line style="stroke:#000000;stroke-width:2.1875;" x1="1351.875" x2="1445.2083" y1="96.2158" y2="96.2158"/><text fill="#000000" font-family="sans-serif" font-size="20.4167" font-weight="bold" lengthAdjust="spacing" textLength="74.375" x="1357.7083" y="86.0758">Clients</text></g><!--cluster Mnemo Server--><g id="cluster_Mnemo Server"><path d="M12.3958,284.3433 L162.6042,284.3433 A5.4688,5.4688 0 0 1 166.25,287.9892 L176.4583,317.1387 L2634.4792,317.1387 A3.6458,3.6458 0 0 1 2638.125,320.7846 L2638.125,1422.3683 A3.6458,3.6458 0 0 1 2634.4792,1426.0142 L12.3958,1426.0142 A3.6458,3.6458 0 0 1 8.75,1422.3683 L8.75,287.9892 A3.6458,3.6458 0 0 1 12.3958,284.3433 " fill="none" style="stroke:#000000;stroke-width:2.1875;"/><line style="stroke:#000000;stroke-width:2.1875;" x1="8.75" x2="176.4583" y1="317.1387" y2="317.1387"/><text fill="#000000" font-family="sans-serif" font-size="20.4167" font-weight="bold" lengthAdjust="spacing" textLength="148.75" x="14.5833" y="306.9988">Mnemo Server</text></g><!--cluster Subsystems (Redis Stack)--><g id="cluster_Subsystems (Redis Stack)"><path d="M496.5625,1025.0454 L766.3542,1025.0454 A5.4688,5.4688 0 0 1 770,1028.6912 L780.2083,1057.8408 L1564.0625,1057.8408 A3.6458,3.6458 0 0 1 1567.7083,1061.4867 L1567.7083,1173.0225 A3.6458,3.6458 0 0 1 1564.0625,1176.6683 L496.5625,1176.6683 A3.6458,3.6458 0 0 1 492.9167,1173.0225 L492.9167,1028.6912 A3.6458,3.6458 0 0 1 496.5625,1025.0454 " fill="none" style="stroke:#000000;stroke-width:2.1875;"/><line style="stroke:#000000;stroke-width:2.1875;" x1="492.9167" x2="780.2083" y1="1057.8408" y2="1057.8408"/><text fill="#000000" font-family="sans-serif" font-size="20.4167" font-weight="bold" lengthAdjust="spacing" textLength="268.3333" x="498.75" y="1047.7008">Subsystems (Redis Stack)</text></g><!--cluster Core Keyspace--><g id="cluster_Core Keyspace"><path d="M1606.3542,1025.0454 L1759.4792,1025.0454 A5.4688,5.4688 0 0 1 1763.125,1028.6912 L1773.3333,1057.8408 L2599.4792,1057.8408 A3.6458,3.6458 0 0 1 2603.125,1061.4867 L2603.125,1387.3683 A3.6458,3.6458 0 0 1 2599.4792,1391.0142 L1606.3542,1391.0142 A3.6458,3.6458 0 0 1 1602.7083,1387.3683 L1602.7083,1028.6912 A3.6458,3.6458 0 0 1 1606.3542,1025.0454 " fill="none" style="stroke:#000000;stroke-width:2.1875;"/><line style="stroke:#000000;stroke-width:2.1875;" x1="1602.7083" x2="1773.3333" y1="1057.8408" y2="1057.8408"/><text fill="#000000" font-family="sans-serif" font-size="20.4167" font-weight="bold" lengthAdjust="spacing" textLength="151.6667" x="1608.5417" y="1047.7008">Core Keyspace</text></g><!--entity redis-cli / apps--><g id="elem_redis-cli / apps"><rect fill="#F1F1F1" height="53.2121" rx="3.6458" ry="3.6458" style="stroke:#181818;stroke-width:0.7291666666666666;" width="182.2917" x="1374.4792" y="114.4621"/><text fill="#000000" font-family="sans-serif" font-size="20.4167" lengthAdjust="spacing" textLength="153.125" x="1389.0625" y="148.7842">redis-cli / apps</text></g><!--entity Net--><g id="elem_Net"><rect fill="#F1F1F1" height="77.2575" rx="3.6458" ry="3.6458" style="stroke:#181818;stroke-width:0.7291666666666666;" width="183.75" x="1373.75" y="335.385"/><text fill="#000000" font-family="sans-serif" font-size="20.4167" lengthAdjust="spacing" textLength="126.875" x="1388.3333" y="369.7071">Net/Protocol</text><text fill="#000000" font-family="sans-serif" font-size="20.4167" lengthAdjust="spacing" textLength="154.5833" x="1388.3333" y="393.7525">(tokio + RESP3)</text></g><!--entity Disp--><g id="elem_Disp"><rect fill="#F1F1F1" height="77.2575" rx="3.6458" ry="3.6458" style="stroke:#181818;stroke-width:0.7291666666666666;" width="220.2083" x="1355.5208" y="501.6058"/><text fill="#000000" font-family="sans-serif" font-size="20.4167" lengthAdjust="spacing" textLength="106.4583" x="1370.1042" y="535.9279">Dispatcher</text><text fill="#000000" font-family="sans-serif" font-size="20.4167" lengthAdjust="spacing" textLength="191.0417" x="1370.1042" y="559.9733">(Command Router)</text></g><!--entity Cmd--><g id="elem_Cmd"><rect fill="#F1F1F1" height="77.2575" rx="3.6458" ry="3.6458" style="stroke:#181818;stroke-width:0.7291666666666666;" width="331.0417" x="664.2708" y="667.8121"/><text fill="#000000" font-family="sans-serif" font-size="20.4167" lengthAdjust="spacing" textLength="192.5" x="678.8542" y="702.1342">Command Runtime</text><text fill="#000000" font-family="sans-serif" font-size="20.4167" lengthAdjust="spacing" textLength="301.875" x="678.8542" y="726.1796">(Registry + Flags + ArgParser)</text></g><!--entity Shards--><g id="elem_Shards"><rect fill="#F1F1F1" height="77.2575" rx="3.6458" ry="3.6458" style="stroke:#181818;stroke-width:0.7291666666666666;" width="287.2917" x="686.1458" y="834.0329"/><text fill="#000000" font-family="sans-serif" font-size="20.4167" lengthAdjust="spacing" textLength="103.5417" x="700.7292" y="868.355">Shards (N)</text><text fill="#000000" font-family="sans-serif" font-size="20.4167" lengthAdjust="spacing" textLength="258.125" x="700.7292" y="892.4004">Single-Writer Event Loops</text></g><!--entity Admin--><g id="elem_Admin"><rect fill="#F1F1F1" height="77.2575" rx="3.6458" ry="3.6458" style="stroke:#181818;stroke-width:0.7291666666666666;" width="457.9167" x="1047.0833" y="667.8121"/><text fill="#000000" font-family="sans-serif" font-size="20.4167" lengthAdjust="spacing" textLength="65.625" x="1061.6667" y="702.1342">Admin</text><text fill="#000000" font-family="sans-serif" font-size="20.4167" lengthAdjust="spacing" textLength="428.75" x="1061.6667" y="726.1796">(INFO/CONFIG/MONITOR/Slowlog/metrics)</text></g><!--entity Script--><g id="elem_Script"><rect fill="#F1F1F1" height="77.2575" rx="3.6458" ry="3.6458" style="stroke:#181818;stroke-width:0.7291666666666666;" width="201.25" x="1556.0417" y="667.8121"/><text fill="#000000" font-family="sans-serif" font-size="20.4167" lengthAdjust="spacing" textLength="88.9583" x="1570.625" y="702.1342">Scripting</text><text fill="#000000" font-family="sans-serif" font-size="20.4167" lengthAdjust="spacing" textLength="172.0833" x="1570.625" y="726.1796">(Lua/JS Sandbox)</text></g><!--entity Repl--><g id="elem_Repl"><rect fill="#F1F1F1" height="77.2575" rx="3.6458" ry="3.6458" style="stroke:#181818;stroke-width:0.7291666666666666;" width="227.5" x="32.0833" y="1076.0871"/><text fill="#000000" font-family="sans-serif" font-size="20.4167" lengthAdjust="spacing" textLength="110.8333" x="46.6667" y="1110.4092">Replication</text><text fill="#000000" font-family="sans-serif" font-size="20.4167" lengthAdjust="spacing" textLength="198.3333" x="46.6667" y="1134.4546">(PSYNC2 + Backlog)</text></g><!--entity Cluster--><g id="elem_Cluster"><rect fill="#F1F1F1" height="77.2575" rx="3.6458" ry="3.6458" style="stroke:#181818;stroke-width:0.7291666666666666;" width="255.2083" x="1809.0625" y="667.8121"/><text fill="#000000" font-family="sans-serif" font-size="20.4167" lengthAdjust="spacing" textLength="71.4583" x="1823.6458" y="702.1342">Cluster</text><text fill="#000000" font-family="sans-serif" font-size="20.4167" lengthAdjust="spacing" textLength="226.0417" x="1823.6458" y="726.1796">(Slots/Gossip/Migrate)</text></g><!--entity Persist--><g id="elem_Persist"><rect fill="#F1F1F1" height="77.2575" rx="3.6458" ry="3.6458" style="stroke:#181818;stroke-width:0.7291666666666666;" width="237.7083" x="137.8125" y="1290.4183"/><text fill="#000000" font-family="sans-serif" font-size="20.4167" lengthAdjust="spacing" textLength="112.2917" x="152.3958" y="1324.7404">Persistence</text><text fill="#000000" font-family="sans-serif" font-size="20.4167" lengthAdjust="spacing" textLength="208.5417" x="152.3958" y="1348.7858">(RDB/AOF + Rewrite)</text></g><!--entity JSONM--><g id="elem_JSONM"><rect fill="#F1F1F1" height="77.2575" rx="3.6458" ry="3.6458" style="stroke:#181818;stroke-width:0.7291666666666666;" width="115.2083" x="515.5208" y="1076.0871"/><text fill="#000000" font-family="sans-serif" font-size="20.4167" lengthAdjust="spacing" textLength="86.0417" x="530.1042" y="1110.4092">JSONDoc</text><text fill="#000000" font-family="sans-serif" font-size="20.4167" lengthAdjust="spacing" textLength="78.75" x="530.1042" y="1134.4546">(JSON.*)</text></g><!--entity Search--><g id="elem_Search"><rect fill="#F1F1F1" height="77.2575" rx="3.6458" ry="3.6458" style="stroke:#181818;stroke-width:0.7291666666666666;" width="167.7083" x="681.7708" y="1076.0871"/><text fill="#000000" font-family="sans-serif" font-size="20.4167" lengthAdjust="spacing" textLength="134.1667" x="696.3542" y="1110.4092">Search/Index</text><text fill="#000000" font-family="sans-serif" font-size="20.4167" lengthAdjust="spacing" textLength="138.5417" x="696.3542" y="1134.4546">(FT.* + BM25)</text></g><!--entity Vector--><g id="elem_Vector"><rect fill="#F1F1F1" height="77.2575" rx="3.6458" ry="3.6458" style="stroke:#181818;stroke-width:0.7291666666666666;" width="156.0417" x="900.5208" y="1076.0871"/><text fill="#000000" font-family="sans-serif" font-size="20.4167" lengthAdjust="spacing" textLength="126.875" x="915.1042" y="1110.4092">Vector Index</text><text fill="#000000" font-family="sans-serif" font-size="20.4167" lengthAdjust="spacing" textLength="121.0417" x="915.1042" y="1134.4546">(HNSW KNN)</text></g><!--entity TS--><g id="elem_TS"><rect fill="#F1F1F1" height="77.2575" rx="3.6458" ry="3.6458" style="stroke:#181818;stroke-width:0.7291666666666666;" width="138.5417" x="1107.6042" y="1076.0871"/><text fill="#000000" font-family="sans-serif" font-size="20.4167" lengthAdjust="spacing" textLength="109.375" x="1122.1875" y="1110.4092">TimeSeries</text><text fill="#000000" font-family="sans-serif" font-size="20.4167" lengthAdjust="spacing" textLength="55.4167" x="1122.1875" y="1134.4546">(TS.*)</text></g><!--entity Prob--><g id="elem_Prob"><rect fill="#F1F1F1" height="77.2575" rx="3.6458" ry="3.6458" style="stroke:#181818;stroke-width:0.7291666666666666;" width="247.9167" x="1296.4583" y="1076.0871"/><text fill="#000000" font-family="sans-serif" font-size="20.4167" lengthAdjust="spacing" textLength="122.5" x="1311.0417" y="1110.4092">Probabilistic</text><text fill="#000000" font-family="sans-serif" font-size="20.4167" lengthAdjust="spacing" textLength="218.75" x="1311.0417" y="1134.4546">(Bloom/CF/TopK/CM)</text></g><!--entity KSAPI--><g id="elem_KSAPI"><rect fill="#F1F1F1" height="77.2575" rx="3.6458" ry="3.6458" style="stroke:#181818;stroke-width:0.7291666666666666;" width="245" x="1894.375" y="1076.0871"/><text fill="#000000" font-family="sans-serif" font-size="20.4167" lengthAdjust="spacing" textLength="129.7917" x="1908.9583" y="1110.4092">Keyspace API</text><text fill="#000000" font-family="sans-serif" font-size="20.4167" lengthAdjust="spacing" textLength="215.8333" x="1908.9583" y="1134.4546">(get/set/expire/scan)</text></g><!--entity Types--><g id="elem_Types"><rect fill="#F1F1F1" height="77.2575" rx="3.6458" ry="3.6458" style="stroke:#181818;stroke-width:0.7291666666666666;" width="408.3333" x="1626.0417" y="1290.4183"/><text fill="#000000" font-family="sans-serif" font-size="20.4167" lengthAdjust="spacing" textLength="188.125" x="1640.625" y="1324.7404">Types &amp; Encodings</text><text fill="#000000" font-family="sans-serif" font-size="20.4167" lengthAdjust="spacing" textLength="379.1667" x="1640.625" y="1348.7858">(String/List/Hash/Set/ZSet/Stream/...)</text></g><!--entity TTL--><g id="elem_TTL"><rect fill="#F1F1F1" height="77.2575" rx="3.6458" ry="3.6458" style="stroke:#181818;stroke-width:0.7291666666666666;" width="236.25" x="2085.4167" y="1290.4183"/><text fill="#000000" font-family="sans-serif" font-size="20.4167" lengthAdjust="spacing" textLength="140" x="2100" y="1324.7404">TTL &amp; Eviction</text><text fill="#000000" font-family="sans-serif" font-size="20.4167" lengthAdjust="spacing" textLength="207.0833" x="2100" y="1348.7858">(timing wheel + LFU)</text></g><!--entity Mem--><g id="elem_Mem"><rect fill="#F1F1F1" height="77.2575" rx="3.6458" ry="3.6458" style="stroke:#181818;stroke-width:0.7291666666666666;" width="207.0833" x="2372.7083" y="1290.4183"/><text fill="#000000" font-family="sans-serif" font-size="20.4167" lengthAdjust="spacing" textLength="142.9167" x="2387.2917" y="1324.7404">Memory Mgmt</text><text fill="#000000" font-family="sans-serif" font-size="20.4167" lengthAdjust="spacing" textLength="177.9167" x="2387.2917" y="1348.7858">(Arenas/Jemalloc)</text></g><!--link redis-cli / apps to Net--><g id="link_redis-cli / apps_Net"><path d="M1465.625,168.0267 C1465.625,208.4954 1465.625,278.9183 1465.625,326.0079 " fill="none" id="redis-cli / apps-to-Net" style="stroke:#181818;stroke-width:1.4583333333333333;"/><polygon fill="#181818" points="1465.625,334.7579,1471.4583,321.6329,1465.625,327.4662,1459.7917,321.6329,1465.625,334.7579" style="stroke:#181818;stroke-width:1.4583333333333333;"/><text fill="#000000" font-family="sans-serif" font-size="18.9583" lengthAdjust="spacing" textLength="53.9583" x="1491.875" y="234.1305">RESP3</text><text fill="#000000" font-family="sans-serif" font-size="18.9583" lengthAdjust="spacing" textLength="103.5417" x="1467.0833" y="256.4584">(pipelining)</text></g><!--link Net to Disp--><g id="link_Net_Disp"><path d="M1465.625,413.3475 C1465.625,439.7287 1465.625,466.0225 1465.625,492.36 " fill="none" id="Net-to-Disp" style="stroke:#181818;stroke-width:1.4583333333333333;"/><polygon fill="#181818" points="1465.625,501.11,1471.4583,487.985,1465.625,493.8183,1459.7917,487.985,1465.625,501.11" style="stroke:#181818;stroke-width:1.4583333333333333;"/></g><!--link Disp to Cmd--><g id="link_Disp_Cmd"><path d="M1354.8646,570.1329 C1250.0833,597.0392 1100.5915,635.4329 985.2957,665.0516 " fill="none" id="Disp-to-Cmd" style="stroke:#181818;stroke-width:1.4583333333333333;"/><polygon fill="#181818" points="976.8208,667.2287,990.9845,669.6129,983.8832,665.4145,988.0816,658.3132,976.8208,667.2287" style="stroke:#181818;stroke-width:1.4583333333333333;"/></g><!--link Cmd to Shards--><g id="link_Cmd_Shards"><path d="M829.7917,745.7746 C829.7917,772.1558 829.7917,798.4496 829.7917,824.7871 " fill="none" id="Cmd-to-Shards" style="stroke:#181818;stroke-width:1.4583333333333333;"/><polygon fill="#181818" points="829.7917,833.5371,835.625,820.4121,829.7917,826.2454,823.9583,820.4121,829.7917,833.5371" style="stroke:#181818;stroke-width:1.4583333333333333;"/></g><!--link Shards to KSAPI--><g id="link_Shards_KSAPI"><path d="M973.8458,880.0579 C1124.0542,888.5162 1365.5396,908.5683 1569.1667,955.0454 C1697.5583,984.3433 1831.9635,1035.3436 1920.9656,1072.0644 " fill="none" id="Shards-to-KSAPI" style="stroke:#181818;stroke-width:1.4583333333333333;"/><polygon fill="#181818" points="1929.0542,1075.4017,1919.1461,1065.0034,1922.3137,1072.6206,1914.6965,1075.7882,1929.0542,1075.4017" style="stroke:#181818;stroke-width:1.4583333333333333;"/></g><!--link KSAPI to Types--><g id="link_KSAPI_Types"><path d="M1989.0792,1153.7725 C1968.8958,1180.4162 1940.4729,1216.6267 1913.3333,1246.6683 C1900.1063,1261.3246 1891.1287,1270.5416 1877.3037,1283.8416 " fill="none" id="KSAPI-to-Types" style="stroke:#181818;stroke-width:1.4583333333333333;"/><polygon fill="#181818" points="1870.9979,1289.9079,1884.5007,1285.0123,1876.2527,1284.8527,1876.4124,1276.6046,1870.9979,1289.9079" style="stroke:#181818;stroke-width:1.4583333333333333;"/></g><!--link KSAPI to TTL--><g id="link_KSAPI_TTL"><path d="M2050.2417,1153.9621 C2084.2208,1192.4475 2130.7997,1245.1975 2164.6622,1283.5662 " fill="none" id="KSAPI-to-TTL" style="stroke:#181818;stroke-width:1.4583333333333333;"/><polygon fill="#181818" points="2170.4521,1290.1267,2166.1408,1276.4261,2165.6271,1284.6596,2157.3936,1284.146,2170.4521,1290.1267" style="stroke:#181818;stroke-width:1.4583333333333333;"/></g><!--link KSAPI to Mem--><g id="link_KSAPI_Mem"><path d="M2099.0083,1153.9621 C2182.3521,1192.3308 2302.7367,1247.7353 2386.1097,1286.104 " fill="none" id="KSAPI-to-Mem" style="stroke:#181818;stroke-width:1.4583333333333333;"/><polygon fill="#181818" points="2394.0583,1289.7621,2384.574,1278.9759,2387.4344,1286.7137,2379.6966,1289.5741,2394.0583,1289.7621" style="stroke:#181818;stroke-width:1.4583333333333333;"/></g><!--link Shards to Persist--><g id="link_Shards_Persist"><path d="M685.7375,893.5912 C618.9458,905.885 539.6563,925.2662 472.5,955.0454 C431.2437,973.3329 414.7063,976.0162 389.375,1013.3787 C329.5396,1101.5642 384.8542,1153.0287 333.9583,1246.6683 C325.4271,1262.3746 319.1749,1271.0048 306.8083,1283.6048 " fill="none" id="Shards-to-Persist" style="stroke:#181818;stroke-width:1.4583333333333333;stroke-dasharray:7.0,7.0;"/><polygon fill="#181818" points="300.6792,1289.8496,314.036,1284.5685,305.7867,1284.6456,305.7096,1276.3964,300.6792,1289.8496" style="stroke:#181818;stroke-width:1.4583333333333333;"/><text fill="#000000" font-family="sans-serif" font-size="18.9583" lengthAdjust="spacing" textLength="100.625" x="390.8333" y="1111.1722">change log</text><text fill="#000000" font-family="sans-serif" font-size="18.9583" lengthAdjust="spacing" textLength="96.25" x="393.0208" y="1133.5001">(AOF/RDB)</text></g><!--link Shards to Repl--><g id="link_Shards_Repl"><path d="M685.5771,873.0433 C516.2792,874.9392 249.4479,888.7787 177.9167,955.0454 C145.2208,985.3204 140.439,1030.2721 141.7661,1066.6137 " fill="none" id="Shards-to-Repl" style="stroke:#181818;stroke-width:1.4583333333333333;stroke-dasharray:7.0,7.0;"/><polygon fill="#181818" points="142.0854,1075.3579,147.4359,1062.0288,141.8193,1068.0711,135.777,1062.4545,142.0854,1075.3579" style="stroke:#181818;stroke-width:1.4583333333333333;"/><text fill="#000000" font-family="sans-serif" font-size="18.9583" lengthAdjust="spacing" textLength="167.7083" x="179.375" y="974.8326">replication offsets</text><text fill="#000000" font-family="sans-serif" font-size="18.9583" lengthAdjust="spacing" textLength="91.875" x="217.2917" y="997.1605">&amp; backlog</text></g><!--link Shards to JSONM--><g id="link_Shards_JSONM"><path d="M685.6354,890.8787 C605.6167,903.4787 517.4021,923.9829 492.9167,955.0454 C480.0833,971.335 483.1313,983.4246 492.9167,1001.7121 C497.3208,1009.9517 503.8979,1006.6704 510.4167,1013.3787 C528.1208,1031.5642 539.1483,1047.915 550.1879,1067.8358 " fill="none" id="Shards-to-JSONM" style="stroke:#181818;stroke-width:1.4583333333333333;stroke-dasharray:7.0,7.0;"/><polygon fill="#181818" points="554.4292,1075.4892,553.1695,1061.1816,550.8948,1069.1114,542.965,1066.8366,554.4292,1075.4892" style="stroke:#181818;stroke-width:1.4583333333333333;"/><text fill="#000000" font-family="sans-serif" font-size="18.9583" lengthAdjust="spacing" textLength="186.6667" x="494.375" y="985.7701">index/update hooks</text></g><!--link Shards to Search--><g id="link_Shards_Search"><path d="M743.0208,911.8787 C726.3667,923.2537 711.1271,937.5162 701.4583,955.0454 C679.7,994.4933 701.0594,1035.9367 726.3469,1068.7347 " fill="none" id="Shards-to-Search" style="stroke:#181818;stroke-width:1.4583333333333333;stroke-dasharray:7.0,7.0;"/><polygon fill="#181818" points="731.6896,1075.6642,728.2952,1061.7081,727.2373,1069.8896,719.0559,1068.8317,731.6896,1075.6642" style="stroke:#181818;stroke-width:1.4583333333333333;"/><text fill="#000000" font-family="sans-serif" font-size="18.9583" lengthAdjust="spacing" textLength="186.6667" x="702.9167" y="985.7701">index/update hooks</text></g><!--link Shards to Vector--><g id="link_Shards_Vector"><path d="M863.975,911.9079 C875.1167,925.0767 887.1042,940.2725 896.875,955.0454 C922.7896,994.2308 943.055,1034.717 958.2216,1067.5879 " fill="none" id="Shards-to-Vector" style="stroke:#181818;stroke-width:1.4583333333333333;stroke-dasharray:7.0,7.0;"/><polygon fill="#181818" points="961.8875,1075.5329,961.6854,1061.1714,958.8326,1068.912,951.092,1066.0592,961.8875,1075.5329" style="stroke:#181818;stroke-width:1.4583333333333333;"/><text fill="#000000" font-family="sans-serif" font-size="18.9583" lengthAdjust="spacing" textLength="186.6667" x="925.9833" y="985.7701">index/update hooks</text></g><!--link Shards to TS--><g id="link_Shards_TS"><path d="M973.9188,884.7975 C1027.4979,895.5308 1085.1021,916.1079 1125.8333,955.0454 C1159.0104,986.7496 1169.6768,1031.4011 1173.7456,1067.2907 " fill="none" id="Shards-to-TS" style="stroke:#181818;stroke-width:1.4583333333333333;stroke-dasharray:7.0,7.0;"/><polygon fill="#181818" points="1174.7312,1075.985,1179.049,1062.2864,1173.9099,1068.7397,1167.4566,1063.6006,1174.7312,1075.985" style="stroke:#181818;stroke-width:1.4583333333333333;"/><text fill="#000000" font-family="sans-serif" font-size="18.9583" lengthAdjust="spacing" textLength="185.2083" x="1156.9104" y="985.7701">append/compaction</text></g><!--link Shards to Prob--><g id="link_Shards_Prob"><path d="M973.9479,880.6704 C1108.5521,889.5225 1297.1146,909.7787 1354.7917,955.0454 C1392.2271,984.4162 1406.8762,1030.2728 1413.8178,1066.9791 " fill="none" id="Shards-to-Prob" style="stroke:#181818;stroke-width:1.4583333333333333;stroke-dasharray:7.0,7.0;"/><polygon fill="#181818" points="1415.4438,1075.5767,1418.7366,1061.5963,1414.0888,1068.412,1407.2731,1063.7642,1415.4438,1075.5767" style="stroke:#181818;stroke-width:1.4583333333333333;"/><text fill="#000000" font-family="sans-serif" font-size="18.9583" lengthAdjust="spacing" textLength="163.3333" x="1392.8396" y="985.7701">mutate structures</text></g><!--link Disp to Admin--><g id="link_Disp_Admin"><path d="M1421.6563,579.5683 C1391.0313,605.9496 1356.9725,635.2671 1326.4058,661.6046 " fill="none" id="Disp-to-Admin" style="stroke:#181818;stroke-width:1.4583333333333333;stroke-dasharray:7.0,7.0;"/><polygon fill="#181818" points="1319.7771,667.3162,1333.5279,663.168,1325.301,662.5566,1325.9125,654.3297,1319.7771,667.3162" style="stroke:#181818;stroke-width:1.4583333333333333;"/></g><!--link Disp to Script--><g id="link_Disp_Script"><path d="M1509.9292,579.5683 C1540.8021,605.9496 1575.1298,635.2937 1605.9443,661.6312 " fill="none" id="Disp-to-Script" style="stroke:#181818;stroke-width:1.4583333333333333;stroke-dasharray:7.0,7.0;"/><polygon fill="#181818" points="1612.5958,667.3162,1606.4087,654.3543,1607.0529,662.5787,1598.8285,663.2229,1612.5958,667.3162" style="stroke:#181818;stroke-width:1.4583333333333333;"/></g><!--link Disp to Cluster--><g id="link_Disp_Cluster"><path d="M1574.8688,579.5683 C1650.8333,605.8912 1743.4094,637.9971 1819.3302,664.3055 " fill="none" id="Disp-to-Cluster" style="stroke:#181818;stroke-width:1.4583333333333333;stroke-dasharray:7.0,7.0;"/><polygon fill="#181818" points="1827.5979,667.1704,1817.1064,657.3612,1820.7082,664.783,1813.2864,668.3848,1827.5979,667.1704" style="stroke:#181818;stroke-width:1.4583333333333333;"/></g><!--link Repl to Persist--><g id="link_Repl_Persist"><path d="M165.6521,1153.9621 C185.8208,1192.4475 212.8505,1244.0079 232.9609,1282.3767 " fill="none" id="Repl-to-Persist" style="stroke:#181818;stroke-width:1.4583333333333333;stroke-dasharray:7.0,7.0;"/><polygon fill="#181818" points="237.0229,1290.1267,236.0965,1275.7937,233.6379,1283.6683,225.7632,1281.2097,237.0229,1290.1267" style="stroke:#181818;stroke-width:1.4583333333333333;"/><text fill="#000000" font-family="sans-serif" font-size="18.9583" lengthAdjust="spacing" textLength="106.4583" x="213.3688" y="1219.7889">stream AOF</text><text fill="#000000" font-family="sans-serif" font-size="18.9583" lengthAdjust="spacing" textLength="107.9167" x="212.6396" y="1242.1167">on full sync</text></g><!--SRC=[XLJDRjj64BxpAGOka4O9f6tJzf9305csuX-94hHgWxREORKSamkJkyJkqhPG1EX3z0dx99tXKeBS7690DBdppSn-CzzCDB56M5fi7FpxzpzmPSfglC17h67ccjPPj370wuNQem-ZB0iFnhRAgmRqmIpZda9ur57PiiOJIAXKuPwCBU5UrU7KKhG6VlpvXonhbNvG9SBPh3QSwWo-k-Z_uAyCu4-FXGbZNHiGeDesVCw-dFYaQqlqZ-ZFaaEEKQozYqwx-iw-Zkx1E7WBcqkv_cdq6LG0GZ3mmeHMHLsX9nXHRPGjOEEwY3xX6C30ewspqJH8w0sM9aI_fxZpMfM1_azzkLO-77ndJS6kibA-eEhbepih3HTd_CaRoW2NZqGM5iuH9NP8IFQP5esnbEGwdw_4R9NFhp-AvIg_tgusGjRkgNQbQ31weqFArJlqsRGtRQGqvBtebBYH8EdYE_USWCdEo0ssjT4g6iUPrlBtVFQEI9nJNIbyGZEcfrzt8VP5ekmnY8yk1DEAfIczYZZGJHY6hqacL1oqkg_KnRcOhkRS07nYvWa_W39oEFPIThkm9yU6whNXheECP1kblbBa6xdABvocgFmsUPD2yVio0IGghojnRGjy9jHyEtd3f9RlVXduz_Q4_OtKwZmSi5Uv_0ItUPw0oPY0Msev2SnW8DXM7j9kPJAJr7PgPsfYO_XgvxLpZPZDnTQrjsAs7FWIYl1VNX2UEOzmYtkIeSOZoyC1JDVN5AyaEGVwuNDhF8gWbKqXRoK1XYlkMmpm2YwjTWMrdsygII2s50kwbxXIeHAIWlp13xAWQiHaCXcOiFSGQBlWC8z63yeWlVFmFbL8w-0jBEQ_3ZxRHV9OqlpH72pB9X9ywj6g86wmKNNjTC8IfATEvB-UPXYFF_10mliqeHIaDItMnb9UsZPiOaW_Y_peltYwwDU_3uCpJ1gVfChqJnZJ-h5qbaZ-xun8l3pXgsRVGp-YOreE5LJEFHo3JoOV3igb- -gAjXq2pGipNyq5QNrq2kK1uYAzfzLu73Tmz_VKJshHAzYbSJlrwTNS-nXMfkZQWeRiwsiaANyRDyZycxYj14XtfRQWBGGlTzNBu0Lxqd62DLtaGBG5EnqxJyLDxM5KMaZ7ps7j7ByFooBh2_IogA4N9r0vxomLwxwhQmXxgxF_0000]--></g></svg>