<?xml version="1.0" encoding="us-ascii" standalone="no"?><svg xmlns="http://www.w3.org/2000/svg" xmlns:xlink="http://www.w3.org/1999/xlink" contentStyleType="text/css" height="1484.5833px" preserveAspectRatio="none" style="width:1782px;height:1484px;background:#FFFFFF;" version="1.1" viewBox="0 0 1782 1484" width="1782.0833px" zoomAndPan="magnify"><defs/><g><text fill="#000000" font-family="sans-serif" font-size="20.4167" font-weight="bold" lengthAdjust="spacing" textLength="401.0417" x="680.3125" y="34.3221">Mnemo &#8212; Runtime Threads &amp; Queues</text><!--cluster OS--><g id="cluster_OS"><rect fill="none" height="1412.2792" rx="3.6458" ry="3.6458" style="stroke:#181818;stroke-width:1.4583333333333333;" width="1763.125" x="10.2083" y="64.8787"/><text fill="#000000" font-family="sans-serif" font-size="20.4167" font-weight="bold" lengthAdjust="spacing" textLength="29.1667" x="877.1875" y="87.5342">OS</text></g><!--cluster Mnemo Process--><g id="cluster_Mnemo Process"><polygon fill="none" points="45.2083,142.1704,59.7917,127.5871,1738.3333,127.5871,1738.3333,1427.5746,1723.75,1442.1579,45.2083,1442.1579,45.2083,142.1704" style="stroke:#181818;stroke-width:1.4583333333333333;"/><line style="stroke:#181818;stroke-width:1.4583333333333333;" x1="1723.75" x2="1738.3333" y1="142.1704" y2="127.5871"/><line style="stroke:#181818;stroke-width:1.4583333333333333;" x1="45.2083" x2="1723.75" y1="142.1704" y2="142.1704"/><line style="stroke:#181818;stroke-width:1.4583333333333333;" x1="1723.75" x2="1723.75" y1="142.1704" y2="1442.1579"/><text fill="#000000" font-family="sans-serif" font-size="20.4167" font-weight="bold" lengthAdjust="spacing" textLength="164.7917" x="803.5417" y="166.2842">Mnemo Process</text></g><!--cluster Tokio Runtime--><g id="cluster_Tokio Runtime"><rect fill="none" height="1209.5708" rx="3.6458" ry="3.6458" style="stroke:#181818;stroke-width:1.4583333333333333;" width="1623.125" x="80.2083" y="197.5871"/><path d="M252.2917,197.5871 L252.2917,211.4242 L237.7083,226.0075 L80.2083,226.0075 " fill="none" style="stroke:#181818;stroke-width:1.4583333333333333;"/><text fill="#000000" font-family="sans-serif" font-size="20.4167" font-weight="bold" lengthAdjust="spacing" textLength="157.5" x="84.5833" y="218.7842">Tokio Runtime</text></g><!--cluster Shard Executors (N)--><g id="cluster_Shard Executors (N)"><path d="M747.3958,812.2308 L953.0208,812.2308 A5.4688,5.4688 0 0 1 956.6667,815.8767 L966.875,845.0262 L1545.1042,845.0262 A3.6458,3.6458 0 0 1 1548.75,848.6721 L1548.75,974.7912 A3.6458,3.6458 0 0 1 1545.1042,978.4371 L747.3958,978.4371 A3.6458,3.6458 0 0 1 743.75,974.7912 L743.75,815.8767 A3.6458,3.6458 0 0 1 747.3958,812.2308 " fill="none" style="stroke:#000000;stroke-width:2.1875;"/><line style="stroke:#000000;stroke-width:2.1875;" x1="743.75" x2="966.875" y1="845.0262" y2="845.0262"/><text fill="#000000" font-family="sans-serif" font-size="20.4167" font-weight="bold" lengthAdjust="spacing" textLength="204.1667" x="749.5833" y="834.8863">Shard Executors (N)</text></g><!--cluster Background Workers--><g id="cluster_Background Workers"><path d="M118.8542,1049.8954 L336.1458,1049.8954 A5.4688,5.4688 0 0 1 339.7917,1053.5412 L350,1082.6908 L1664.6875,1082.6908 A3.6458,3.6458 0 0 1 1668.3333,1086.3367 L1668.3333,1368.5121 A3.6458,3.6458 0 0 1 1664.6875,1372.1579 L118.8542,1372.1579 A3.6458,3.6458 0 0 1 115.2083,1368.5121 L115.2083,1053.5412 A3.6458,3.6458 0 0 1 118.8542,1049.8954 " fill="none" style="stroke:#000000;stroke-width:2.1875;"/><line style="stroke:#000000;stroke-width:2.1875;" x1="115.2083" x2="350" y1="1082.6908" y2="1082.6908"/><text fill="#000000" font-family="sans-serif" font-size="20.4167" font-weight="bold" lengthAdjust="spacing" textLength="215.8333" x="121.0417" y="1072.5508">Background Workers</text></g><!--entity Acceptor--><g id="elem_Acceptor"><rect fill="#F1F1F1" height="67.7954" rx="3.6458" ry="3.6458" style="stroke:#181818;stroke-width:0.7291666666666666;" width="147.2917" x="950.1042" y="248.6287"/><rect fill="#F1F1F1" height="14.5833" style="stroke:#181818;stroke-width:0.7291666666666666;" width="21.875" x="1068.2292" y="255.9204"/><rect fill="#F1F1F1" height="2.9167" style="stroke:#181818;stroke-width:0.7291666666666666;" width="5.8333" x="1065.3125" y="258.8371"/><rect fill="#F1F1F1" height="2.9167" style="stroke:#181818;stroke-width:0.7291666666666666;" width="5.8333" x="1065.3125" y="264.6704"/><text fill="#000000" font-family="sans-serif" font-size="20.4167" lengthAdjust="spacing" textLength="88.9583" x="971.9792" y="297.5342">Acceptor</text></g><!--entity IO--><g id="elem_IO"><rect fill="#F1F1F1" height="67.7954" rx="3.6458" ry="3.6458" style="stroke:#181818;stroke-width:0.7291666666666666;" width="212.9167" x="917.2917" y="428.7183"/><rect fill="#F1F1F1" height="14.5833" style="stroke:#181818;stroke-width:0.7291666666666666;" width="21.875" x="1101.0417" y="436.01"/><rect fill="#F1F1F1" height="2.9167" style="stroke:#181818;stroke-width:0.7291666666666666;" width="5.8333" x="1098.125" y="438.9267"/><rect fill="#F1F1F1" height="2.9167" style="stroke:#181818;stroke-width:0.7291666666666666;" width="5.8333" x="1098.125" y="444.76"/><text fill="#000000" font-family="sans-serif" font-size="20.4167" lengthAdjust="spacing" textLength="154.5833" x="939.1667" y="477.6238">Conn I/O Tasks</text></g><!--entity BP--><g id="elem_BP"><rect fill="#F1F1F1" height="67.7954" rx="3.6458" ry="3.6458" style="stroke:#181818;stroke-width:0.7291666666666666;" width="275.625" x="885.9375" y="630.6829"/><rect fill="#F1F1F1" height="14.5833" style="stroke:#181818;stroke-width:0.7291666666666666;" width="21.875" x="1132.3958" y="637.9746"/><rect fill="#F1F1F1" height="2.9167" style="stroke:#181818;stroke-width:0.7291666666666666;" width="5.8333" x="1129.4792" y="640.8912"/><rect fill="#F1F1F1" height="2.9167" style="stroke:#181818;stroke-width:0.7291666666666666;" width="5.8333" x="1129.4792" y="646.7246"/><text fill="#000000" font-family="sans-serif" font-size="20.4167" lengthAdjust="spacing" textLength="217.2917" x="907.8125" y="679.5883">Backpressure &amp; Limits</text></g><!--entity S1--><g id="elem_S1"><rect fill="#F1F1F1" height="91.8408" rx="3.6458" ry="3.6458" style="stroke:#181818;stroke-width:0.7291666666666666;" width="253.75" x="767.0833" y="863.2725"/><rect fill="#F1F1F1" height="14.5833" style="stroke:#181818;stroke-width:0.7291666666666666;" width="21.875" x="991.6667" y="870.5642"/><rect fill="#F1F1F1" height="2.9167" style="stroke:#181818;stroke-width:0.7291666666666666;" width="5.8333" x="988.75" y="873.4808"/><rect fill="#F1F1F1" height="2.9167" style="stroke:#181818;stroke-width:0.7291666666666666;" width="5.8333" x="988.75" y="879.3142"/><text fill="#000000" font-family="sans-serif" font-size="20.4167" lengthAdjust="spacing" textLength="84.5833" x="788.9583" y="912.1779">Shard#1</text><text fill="#000000" font-family="sans-serif" font-size="20.4167" lengthAdjust="spacing" textLength="195.4167" x="788.9583" y="936.2233">(single-writer loop)</text></g><!--entity S2--><g id="elem_S2"><rect fill="#F1F1F1" height="91.8408" rx="3.6458" ry="3.6458" style="stroke:#181818;stroke-width:0.7291666666666666;" width="253.75" x="1071.875" y="863.2725"/><rect fill="#F1F1F1" height="14.5833" style="stroke:#181818;stroke-width:0.7291666666666666;" width="21.875" x="1296.4583" y="870.5642"/><rect fill="#F1F1F1" height="2.9167" style="stroke:#181818;stroke-width:0.7291666666666666;" width="5.8333" x="1293.5417" y="873.4808"/><rect fill="#F1F1F1" height="2.9167" style="stroke:#181818;stroke-width:0.7291666666666666;" width="5.8333" x="1293.5417" y="879.3142"/><text fill="#000000" font-family="sans-serif" font-size="20.4167" lengthAdjust="spacing" textLength="84.5833" x="1093.75" y="912.1779">Shard#2</text><text fill="#000000" font-family="sans-serif" font-size="20.4167" lengthAdjust="spacing" textLength="195.4167" x="1093.75" y="936.2233">(single-writer loop)</text></g><!--entity Shard#...--><g id="elem_Shard#..."><rect fill="#F1F1F1" height="67.7954" rx="3.6458" ry="3.6458" style="stroke:#181818;stroke-width:0.7291666666666666;" width="147.2917" x="1377.3958" y="875.2892"/><rect fill="#F1F1F1" height="14.5833" style="stroke:#181818;stroke-width:0.7291666666666666;" width="21.875" x="1495.5208" y="882.5808"/><rect fill="#F1F1F1" height="2.9167" style="stroke:#181818;stroke-width:0.7291666666666666;" width="5.8333" x="1492.6042" y="885.4975"/><rect fill="#F1F1F1" height="2.9167" style="stroke:#181818;stroke-width:0.7291666666666666;" width="5.8333" x="1492.6042" y="891.3308"/><text fill="#000000" font-family="sans-serif" font-size="20.4167" lengthAdjust="spacing" textLength="88.9583" x="1399.2708" y="924.1946">Shard#...</text></g><!--entity AOFW--><g id="elem_AOFW"><rect fill="#F1F1F1" height="67.7954" rx="3.6458" ry="3.6458" style="stroke:#181818;stroke-width:0.7291666666666666;" width="205.625" x="137.8125" y="1100.9371"/><rect fill="#F1F1F1" height="14.5833" style="stroke:#181818;stroke-width:0.7291666666666666;" width="21.875" x="314.2708" y="1108.2287"/><rect fill="#F1F1F1" height="2.9167" style="stroke:#181818;stroke-width:0.7291666666666666;" width="5.8333" x="311.3542" y="1111.1454"/><rect fill="#F1F1F1" height="2.9167" style="stroke:#181818;stroke-width:0.7291666666666666;" width="5.8333" x="311.3542" y="1116.9787"/><text fill="#000000" font-family="sans-serif" font-size="20.4167" lengthAdjust="spacing" textLength="147.2917" x="159.6875" y="1149.8425">AOF Appender</text></g><!--entity AOFWR--><g id="elem_AOFWR"><rect fill="#F1F1F1" height="67.7954" rx="3.6458" ry="3.6458" style="stroke:#181818;stroke-width:0.7291666666666666;" width="189.5833" x="145.8333" y="1281.0267"/><rect fill="#F1F1F1" height="14.5833" style="stroke:#181818;stroke-width:0.7291666666666666;" width="21.875" x="306.25" y="1288.3183"/><rect fill="#F1F1F1" height="2.9167" style="stroke:#181818;stroke-width:0.7291666666666666;" width="5.8333" x="303.3333" y="1291.235"/><rect fill="#F1F1F1" height="2.9167" style="stroke:#181818;stroke-width:0.7291666666666666;" width="5.8333" x="303.3333" y="1297.0683"/><text fill="#000000" font-family="sans-serif" font-size="20.4167" lengthAdjust="spacing" textLength="131.25" x="167.7083" y="1329.9321">AOF Rewriter</text></g><!--entity RDBW--><g id="elem_RDBW"><rect fill="#F1F1F1" height="67.7954" rx="3.6458" ry="3.6458" style="stroke:#181818;stroke-width:0.7291666666666666;" width="224.5833" x="393.75" y="1100.9371"/><rect fill="#F1F1F1" height="14.5833" style="stroke:#181818;stroke-width:0.7291666666666666;" width="21.875" x="589.1667" y="1108.2287"/><rect fill="#F1F1F1" height="2.9167" style="stroke:#181818;stroke-width:0.7291666666666666;" width="5.8333" x="586.25" y="1111.1454"/><rect fill="#F1F1F1" height="2.9167" style="stroke:#181818;stroke-width:0.7291666666666666;" width="5.8333" x="586.25" y="1116.9787"/><text fill="#000000" font-family="sans-serif" font-size="20.4167" lengthAdjust="spacing" textLength="166.25" x="415.625" y="1149.8425">RDB Snapshotter</text></g><!--entity EXPW--><g id="elem_EXPW"><rect fill="#F1F1F1" height="67.7954" rx="3.6458" ry="3.6458" style="stroke:#181818;stroke-width:0.7291666666666666;" width="211.4583" x="670.1042" y="1100.9371"/><rect fill="#F1F1F1" height="14.5833" style="stroke:#181818;stroke-width:0.7291666666666666;" width="21.875" x="852.3958" y="1108.2287"/><rect fill="#F1F1F1" height="2.9167" style="stroke:#181818;stroke-width:0.7291666666666666;" width="5.8333" x="849.4792" y="1111.1454"/><rect fill="#F1F1F1" height="2.9167" style="stroke:#181818;stroke-width:0.7291666666666666;" width="5.8333" x="849.4792" y="1116.9787"/><text fill="#000000" font-family="sans-serif" font-size="20.4167" lengthAdjust="spacing" textLength="153.125" x="691.9792" y="1149.8425">Expiry Sweeper</text></g><!--entity IDXW--><g id="elem_IDXW"><rect fill="#F1F1F1" height="67.7954" rx="3.6458" ry="3.6458" style="stroke:#181818;stroke-width:0.7291666666666666;" width="201.25" x="933.3333" y="1100.9371"/><rect fill="#F1F1F1" height="14.5833" style="stroke:#181818;stroke-width:0.7291666666666666;" width="21.875" x="1105.4167" y="1108.2287"/><rect fill="#F1F1F1" height="2.9167" style="stroke:#181818;stroke-width:0.7291666666666666;" width="5.8333" x="1102.5" y="1111.1454"/><rect fill="#F1F1F1" height="2.9167" style="stroke:#181818;stroke-width:0.7291666666666666;" width="5.8333" x="1102.5" y="1116.9787"/><text fill="#000000" font-family="sans-serif" font-size="20.4167" lengthAdjust="spacing" textLength="142.9167" x="955.2083" y="1149.8425">Index Builders</text></g><!--entity TSCW--><g id="elem_TSCW"><rect fill="#F1F1F1" height="67.7954" rx="3.6458" ry="3.6458" style="stroke:#181818;stroke-width:0.7291666666666666;" width="199.7917" x="1186.3542" y="1100.9371"/><rect fill="#F1F1F1" height="14.5833" style="stroke:#181818;stroke-width:0.7291666666666666;" width="21.875" x="1356.9792" y="1108.2287"/><rect fill="#F1F1F1" height="2.9167" style="stroke:#181818;stroke-width:0.7291666666666666;" width="5.8333" x="1354.0625" y="1111.1454"/><rect fill="#F1F1F1" height="2.9167" style="stroke:#181818;stroke-width:0.7291666666666666;" width="5.8333" x="1354.0625" y="1116.9787"/><text fill="#000000" font-family="sans-serif" font-size="20.4167" lengthAdjust="spacing" textLength="141.4583" x="1208.2292" y="1149.8425">TS Compactor</text></g><!--entity CLUW--><g id="elem_CLUW"><rect fill="#F1F1F1" height="67.7954" rx="3.6458" ry="3.6458" style="stroke:#181818;stroke-width:0.7291666666666666;" width="207.0833" x="1437.9167" y="1100.9371"/><rect fill="#F1F1F1" height="14.5833" style="stroke:#181818;stroke-width:0.7291666666666666;" width="21.875" x="1615.8333" y="1108.2287"/><rect fill="#F1F1F1" height="2.9167" style="stroke:#181818;stroke-width:0.7291666666666666;" width="5.8333" x="1612.9167" y="1111.1454"/><rect fill="#F1F1F1" height="2.9167" style="stroke:#181818;stroke-width:0.7291666666666666;" width="5.8333" x="1612.9167" y="1116.9787"/><text fill="#000000" font-family="sans-serif" font-size="20.4167" lengthAdjust="spacing" textLength="148.75" x="1459.7917" y="1149.8425">Gossip/Cluster</text></g><!--link Acceptor to IO--><g id="link_Acceptor_IO"><path d="M1023.75,316.8933 C1023.75,348.7142 1023.75,387.9142 1023.75,419.6767 " fill="none" id="Acceptor-to-IO" style="stroke:#181818;stroke-width:1.4583333333333333;"/><polygon fill="#181818" points="1023.75,428.4267,1029.5833,415.3017,1023.75,421.135,1017.9167,415.3017,1023.75,428.4267" style="stroke:#181818;stroke-width:1.4583333333333333;"/><text fill="#000000" font-family="sans-serif" font-size="18.9583" lengthAdjust="spacing" textLength="128.3333" x="1025.2083" y="379.9639">new TCP conn</text></g><!--link IO to BP--><g id="link_IO_BP"><path d="M1023.75,496.9392 C1023.75,533.8204 1023.75,584.5558 1023.75,621.4517 " fill="none" id="IO-to-BP" style="stroke:#181818;stroke-width:1.4583333333333333;"/><polygon fill="#181818" points="1023.75,630.2017,1029.5833,617.0767,1023.75,622.91,1017.9167,617.0767,1023.75,630.2017" style="stroke:#181818;stroke-width:1.4583333333333333;"/><text fill="#000000" font-family="sans-serif" font-size="18.9583" lengthAdjust="spacing" textLength="123.9583" x="1025.2083" y="560.0534">framed RESP3</text><text fill="#000000" font-family="sans-serif" font-size="18.9583" lengthAdjust="spacing" textLength="94.7917" x="1039.7917" y="582.3813">(pipelines)</text></g><!--link BP to S1--><g id="link_BP_S1"><path d="M989.0125,699.0933 C977.1271,711.7371 964.4979,726.8454 955.2083,742.2308 C932.2396,780.2496 918.0789,819.9016 908.0164,854.4057 " fill="none" id="BP-to-S1" style="stroke:#181818;stroke-width:1.4583333333333333;"/><polygon fill="#181818" points="905.5667,862.8058,914.8413,851.8389,907.6081,855.8058,903.6412,848.5726,905.5667,862.8058" style="stroke:#181818;stroke-width:1.4583333333333333;"/><text fill="#000000" font-family="sans-serif" font-size="18.9583" lengthAdjust="spacing" textLength="154.5833" x="956.6667" y="762.018">route by key slot</text><text fill="#000000" font-family="sans-serif" font-size="18.9583" lengthAdjust="spacing" textLength="61.25" x="1003.3333" y="784.3459">(mpsc)</text></g><!--link BP to S2--><g id="link_BP_S2"><path d="M1073.2604,699.1662 C1089.0833,711.3871 1105.7813,726.2037 1118.5417,742.2308 C1147.7812,778.9371 1166.7506,819.9008 1180.2693,855.0758 " fill="none" id="BP-to-S2" style="stroke:#181818;stroke-width:1.4583333333333333;"/><polygon fill="#181818" points="1183.4083,863.2433,1184.1448,848.8993,1180.7925,856.437,1173.2548,853.0847,1183.4083,863.2433" style="stroke:#181818;stroke-width:1.4583333333333333;"/><text fill="#000000" font-family="sans-serif" font-size="18.9583" lengthAdjust="spacing" textLength="154.5833" x="1150.3917" y="762.018">route by key slot</text><text fill="#000000" font-family="sans-serif" font-size="18.9583" lengthAdjust="spacing" textLength="61.25" x="1197.0583" y="784.3459">(mpsc)</text></g><!--link S1 to AOFW--><g id="link_S1_AOFW"><path d="M766.4563,914.2121 C660.0271,921.6058 506.8146,942.7517 386.4583,1001.7704 C338.0854,1025.4975 299.6231,1063.4725 272.8627,1094.1267 " fill="none" id="S1-to-AOFW" style="stroke:#181818;stroke-width:1.4583333333333333;"/><polygon fill="#181818" points="267.1083,1100.7183,280.1343,1094.6671,271.9036,1095.2253,271.3454,1086.9946,267.1083,1100.7183" style="stroke:#181818;stroke-width:1.4583333333333333;"/><text fill="#000000" font-family="sans-serif" font-size="18.9583" lengthAdjust="spacing" textLength="177.9167" x="387.9167" y="1021.5576">change log batches</text></g><!--link AOFW to AOFWR--><g id="link_AOFW_AOFWR"><path d="M240.625,1169.2017 C240.625,1201.0371 240.625,1240.2225 240.625,1271.985 " fill="none" id="AOFW-to-AOFWR" style="stroke:#181818;stroke-width:1.4583333333333333;"/><polygon fill="#181818" points="240.625,1280.735,246.4583,1267.61,240.625,1273.4433,234.7917,1267.61,240.625,1280.735" style="stroke:#181818;stroke-width:1.4583333333333333;"/><text fill="#000000" font-family="sans-serif" font-size="18.9583" lengthAdjust="spacing" textLength="129.7917" x="242.0833" y="1232.2722">rewrite trigger</text></g><!--link S1 to RDBW--><g id="link_S1_RDBW"><path d="M766.8792,933.2725 C713.9708,947.01 653.975,968.535 606.6667,1001.7704 C569.9604,1027.5683 545.0113,1063.2403 527.7009,1093.0632 " fill="none" id="S1-to-RDBW" style="stroke:#181818;stroke-width:1.4583333333333333;"/><polygon fill="#181818" points="523.3083,1100.6308,534.9422,1092.2078,526.9688,1094.3245,524.8521,1086.3511,523.3083,1100.6308" style="stroke:#181818;stroke-width:1.4583333333333333;"/><text fill="#000000" font-family="sans-serif" font-size="18.9583" lengthAdjust="spacing" textLength="145.8333" x="608.125" y="1021.5576">snapshot signal</text></g><!--link S1 to IDXW--><g id="link_S1_IDXW"><path d="M938.4083,955.8183 C950.8917,969.8621 963.8708,985.8454 974.1667,1001.7704 C994.6125,1033.3871 1008.4902,1064.9745 1019.0631,1092.4641 " fill="none" id="S1-to-IDXW" style="stroke:#181818;stroke-width:1.4583333333333333;"/><polygon fill="#181818" points="1022.2042,1100.6308,1022.9371,1086.2866,1019.5866,1093.8252,1012.0481,1090.4747,1022.2042,1100.6308" style="stroke:#181818;stroke-width:1.4583333333333333;"/><text fill="#000000" font-family="sans-serif" font-size="18.9583" lengthAdjust="spacing" textLength="173.5417" x="989.6542" y="1021.5576">doc/index updates</text></g><!--link S1 to EXPW--><g id="link_S1_EXPW"><path d="M813.4,955.585 C797.6646,968.3454 783.3,983.76 774.375,1001.7704 C759.0625,1032.7017 760.7104,1064.3235 765.9458,1092.134 " fill="none" id="S1-to-EXPW" style="stroke:#181818;stroke-width:1.4583333333333333;"/><polygon fill="#181818" points="767.5646,1100.7329,770.869,1086.7553,766.2156,1093.5671,759.4038,1088.9137,767.5646,1100.7329" style="stroke:#181818;stroke-width:1.4583333333333333;"/><text fill="#000000" font-family="sans-serif" font-size="18.9583" lengthAdjust="spacing" textLength="191.0417" x="775.8333" y="1021.5576">schedule expirations</text></g><!--link S1 to TSCW--><g id="link_S1_TSCW"><path d="M965.9271,955.7454 C990.3688,969.0162 1018.3833,982.1121 1045.625,990.1037 C1101.8146,1006.6121 1125.0167,974.5725 1176.875,1001.7704 C1218.7146,1023.7183 1246.3542,1061.6198 1264.6417,1092.9157 " fill="none" id="S1-to-TSCW" style="stroke:#181818;stroke-width:1.4583333333333333;"/><polygon fill="#181818" points="1269.0563,1100.4704,1267.4709,1086.1953,1265.3774,1094.1748,1257.3979,1092.0813,1269.0563,1100.4704" style="stroke:#181818;stroke-width:1.4583333333333333;"/><text fill="#000000" font-family="sans-serif" font-size="18.9583" lengthAdjust="spacing" textLength="147.2917" x="1212.1375" y="1021.5576">TS rules/rollups</text></g><!--link CLUW to S1--><g id="link_CLUW_S1"><path d="M1505.4137,1094.0559 C1474.22,1062.1768 1428.2479,1022.0996 1372.2917,1001.7704 C1304.0125,976.9787 1115.8438,1008.7267 1045.625,990.1037 C1017.6104,982.6808 996.6092,973.5926 971.8322,959.9863 " fill="none" id="CLUW-S1" style="stroke:#181818;stroke-width:1.4583333333333333;stroke-dasharray:7.0,7.0;"/><polygon fill="#181818" points="1511.5333,1100.31,1506.5233,1086.8492,1506.4337,1095.0983,1498.1846,1095.0086,1511.5333,1100.31" style="stroke:#181818;stroke-width:1.4583333333333333;"/><polygon fill="#181818" points="964.1625,955.7746,972.8591,967.2053,970.5539,959.2844,978.4748,956.9791,964.1625,955.7746" style="stroke:#181818;stroke-width:1.4583333333333333;"/><text fill="#000000" font-family="sans-serif" font-size="18.9583" lengthAdjust="spacing" textLength="196.875" x="1420.7229" y="1021.5576">gossip/slots/migrate</text></g><!--SRC=[VPFVQjim5CRl_HI73aPpaMJ9TZN684dJ4UWMpyv8OUk5QfywmhOaT6IIK0fxY3tXdcH7ZfMa7VJ6O7q_dp_V9plfAeIl2ciDVt__WQHHJjO8gur5aHEyXUyDDaXHHALKHbXH0sr4hhTI5V0WAi8p9JSIHX_UHP75p0bLSEcBPNe1Zn60qZc_7Jh5LcT8T1007lXRrbQwb3fC43I0dvCiG-EqlGD145w2EDDAmMAuX9MWabfaiGpYL6IbiTofiSYhtCXQkWCpZQCECio8Wjkd6s5pcEymQxW-mUMttca8BjRgRqQ_r2L9lrf_QwL32vNMfjSMJKSlwV5hzFWbFHWCxhgpf__6yxiKLZSgXxMs9LfwDjraUGqJOr3bs1crl5u_bnCyp72KavEUN4qXLSBGHhk0yDbPXVdEIBk7T8jeEc1-6vy12swzWsaZAnwXI-BgzWnOfJ3JDIyKibobipFvYoQIPZYh6WeJp6v-h8-6XETJnEQ4Qm3z_cSE73w2mYsiPZ5aV24YFl72D6QXlLqv9FCqVizn66cmaWgf5x7igNJ453lh4ExtKE8UgDAEqTfGTgB6hr9Sn5FULkQo3Tz-vB0Bk1Sks_0Fr2e1INojGnpWh2mAjA62TvrLwi80aeKILL2zewpcEXlArk_6vC9n-KxtaVYlkMNUyE-7FZNXf5P7nBlE2ATXcQ2XrLNL68gysV1fCEWCAGvn-2LfMCk2gs3q3m00]--></g></svg>