<?xml version="1.0" encoding="us-ascii" standalone="no"?><svg xmlns="http://www.w3.org/2000/svg" xmlns:xlink="http://www.w3.org/1999/xlink" contentStyleType="text/css" height="528px" preserveAspectRatio="none" style="width:852px;height:528px;background:#FFFFFF;" version="1.1" viewBox="0 0 852 528" width="852px" zoomAndPan="magnify"><defs/><g><text fill="#000000" font-family="sans-serif" font-size="14" font-weight="bold" lengthAdjust="spacing" textLength="247" x="301.5" y="28.5352">Mnemo &#8212; Sequence: SET with TTL</text><rect fill="#FFFFFF" height="146.5527" style="stroke:#181818;stroke-width:1.0;" width="10" x="459" y="224.2188"/><line style="stroke:#181818;stroke-width:0.5;stroke-dasharray:5.0,5.0;" x1="28" x2="28" y1="118.9766" y2="447.3926"/><line style="stroke:#181818;stroke-width:0.5;stroke-dasharray:5.0,5.0;" x1="193.5" x2="193.5" y1="118.9766" y2="447.3926"/><line style="stroke:#181818;stroke-width:0.5;stroke-dasharray:5.0,5.0;" x1="297.5" x2="297.5" y1="118.9766" y2="447.3926"/><line style="stroke:#181818;stroke-width:0.5;stroke-dasharray:5.0,5.0;" x1="464" x2="464" y1="118.9766" y2="447.3926"/><line style="stroke:#181818;stroke-width:0.5;stroke-dasharray:5.0,5.0;" x1="591" x2="591" y1="118.9766" y2="447.3926"/><line style="stroke:#181818;stroke-width:0.5;stroke-dasharray:5.0,5.0;" x1="680" x2="680" y1="118.9766" y2="447.3926"/><line style="stroke:#181818;stroke-width:0.5;stroke-dasharray:5.0,5.0;" x1="788" x2="788" y1="118.9766" y2="447.3926"/><text fill="#000000" font-family="sans-serif" font-size="14" lengthAdjust="spacing" textLength="40" x="5" y="116.0234">Client</text><ellipse cx="28" cy="50.9883" fill="#E2E2F0" rx="8" ry="8" style="stroke:#181818;stroke-width:0.5;"/><path d="M28,58.9883 L28,85.9883 M15,66.9883 L41,66.9883 M28,85.9883 L15,100.9883 M28,85.9883 L41,100.9883 " fill="none" style="stroke:#181818;stroke-width:0.5;"/><text fill="#000000" font-family="sans-serif" font-size="14" lengthAdjust="spacing" textLength="40" x="5" y="459.9277">Client</text><ellipse cx="28" cy="471.3809" fill="#E2E2F0" rx="8" ry="8" style="stroke:#181818;stroke-width:0.5;"/><path d="M28,479.3809 L28,506.3809 M15,487.3809 L41,487.3809 M28,506.3809 L15,521.3809 M28,506.3809 L41,521.3809 " fill="none" style="stroke:#181818;stroke-width:0.5;"/><rect fill="#E2E2F0" height="30.4883" rx="2.5" ry="2.5" style="stroke:#181818;stroke-width:0.5;" width="101" x="143.5" y="87.4883"/><text fill="#000000" font-family="sans-serif" font-size="14" lengthAdjust="spacing" textLength="87" x="150.5" y="108.0234">Net/Protocol</text><rect fill="#E2E2F0" height="30.4883" rx="2.5" ry="2.5" style="stroke:#181818;stroke-width:0.5;" width="101" x="143.5" y="446.3926"/><text fill="#000000" font-family="sans-serif" font-size="14" lengthAdjust="spacing" textLength="87" x="150.5" y="466.9277">Net/Protocol</text><rect fill="#E2E2F0" height="30.4883" rx="2.5" ry="2.5" style="stroke:#181818;stroke-width:0.5;" width="87" x="254.5" y="87.4883"/><text fill="#000000" font-family="sans-serif" font-size="14" lengthAdjust="spacing" textLength="73" x="261.5" y="108.0234">Dispatcher</text><rect fill="#E2E2F0" height="30.4883" rx="2.5" ry="2.5" style="stroke:#181818;stroke-width:0.5;" width="87" x="254.5" y="446.3926"/><text fill="#000000" font-family="sans-serif" font-size="14" lengthAdjust="spacing" textLength="73" x="261.5" y="466.9277">Dispatcher</text><rect fill="#E2E2F0" height="30.4883" rx="2.5" ry="2.5" style="stroke:#181818;stroke-width:0.5;" width="158" x="385" y="87.4883"/><text fill="#000000" font-family="sans-serif" font-size="14" lengthAdjust="spacing" textLength="144" x="392" y="108.0234">Shard (owner of slot)</text><rect fill="#E2E2F0" height="30.4883" rx="2.5" ry="2.5" style="stroke:#181818;stroke-width:0.5;" width="158" x="385" y="446.3926"/><text fill="#000000" font-family="sans-serif" font-size="14" lengthAdjust="spacing" textLength="144" x="392" y="466.9277">Shard (owner of slot)</text><rect fill="#E2E2F0" height="30.4883" rx="2.5" ry="2.5" style="stroke:#181818;stroke-width:0.5;" width="77" x="553" y="87.4883"/><text fill="#000000" font-family="sans-serif" font-size="14" lengthAdjust="spacing" textLength="63" x="560" y="108.0234">Keyspace</text><rect fill="#E2E2F0" height="30.4883" rx="2.5" ry="2.5" style="stroke:#181818;stroke-width:0.5;" width="77" x="553" y="446.3926"/><text fill="#000000" font-family="sans-serif" font-size="14" lengthAdjust="spacing" textLength="63" x="560" y="466.9277">Keyspace</text><rect fill="#E2E2F0" height="30.4883" rx="2.5" ry="2.5" style="stroke:#181818;stroke-width:0.5;" width="81" x="640" y="87.4883"/><text fill="#000000" font-family="sans-serif" font-size="14" lengthAdjust="spacing" textLength="67" x="647" y="108.0234">TTL Table</text><rect fill="#E2E2F0" height="30.4883" rx="2.5" ry="2.5" style="stroke:#181818;stroke-width:0.5;" width="81" x="640" y="446.3926"/><text fill="#000000" font-family="sans-serif" font-size="14" lengthAdjust="spacing" textLength="67" x="647" y="466.9277">TTL Table</text><rect fill="#E2E2F0" height="30.4883" rx="2.5" ry="2.5" style="stroke:#181818;stroke-width:0.5;" width="115" x="731" y="87.4883"/><text fill="#000000" font-family="sans-serif" font-size="14" lengthAdjust="spacing" textLength="101" x="738" y="108.0234">AOF Appender</text><rect fill="#E2E2F0" height="30.4883" rx="2.5" ry="2.5" style="stroke:#181818;stroke-width:0.5;" width="115" x="731" y="446.3926"/><text fill="#000000" font-family="sans-serif" font-size="14" lengthAdjust="spacing" textLength="101" x="738" y="466.9277">AOF Appender</text><rect fill="#FFFFFF" height="146.5527" style="stroke:#181818;stroke-width:1.0;" width="10" x="459" y="224.2188"/><polygon fill="#181818" points="182,161.5977,192,165.5977,182,169.5977,186,165.5977" style="stroke:#181818;stroke-width:1.0;"/><line style="stroke:#181818;stroke-width:1.0;" x1="28" x2="188" y1="165.5977" y2="165.5977"/><text fill="#000000" font-family="sans-serif" font-size="13" lengthAdjust="spacing" textLength="74" x="35" y="145.5449">RESP3 Array</text><text fill="#000000" font-family="sans-serif" font-size="13" lengthAdjust="spacing" textLength="142" x="35" y="160.8555">["SET","k","v","EX","10"]</text><polygon fill="#181818" points="286,190.9082,296,194.9082,286,198.9082,290,194.9082" style="stroke:#181818;stroke-width:1.0;"/><line style="stroke:#181818;stroke-width:1.0;" x1="194" x2="292" y1="194.9082" y2="194.9082"/><text fill="#000000" font-family="sans-serif" font-size="13" lengthAdjust="spacing" textLength="38" x="201" y="190.166">Frame</text><polygon fill="#181818" points="447,220.2188,457,224.2188,447,228.2188,451,224.2188" style="stroke:#181818;stroke-width:1.0;"/><line style="stroke:#181818;stroke-width:1.0;" x1="298" x2="453" y1="224.2188" y2="224.2188"/><text fill="#000000" font-family="sans-serif" font-size="13" lengthAdjust="spacing" textLength="142" x="305" y="219.4766">route(slot(k)), enqueue</text><polygon fill="#181818" points="579.5,249.5293,589.5,253.5293,579.5,257.5293,583.5,253.5293" style="stroke:#181818;stroke-width:1.0;"/><line style="stroke:#181818;stroke-width:1.0;" x1="469" x2="585.5" y1="253.5293" y2="253.5293"/><text fill="#000000" font-family="sans-serif" font-size="13" lengthAdjust="spacing" textLength="50" x="476" y="248.7871">set(k, v)</text><polygon fill="#181818" points="668.5,278.8398,678.5,282.8398,668.5,286.8398,672.5,282.8398" style="stroke:#181818;stroke-width:1.0;"/><line style="stroke:#181818;stroke-width:1.0;" x1="469" x2="674.5" y1="282.8398" y2="282.8398"/><text fill="#000000" font-family="sans-serif" font-size="13" lengthAdjust="spacing" textLength="148" x="476" y="278.0977">set_expiry(k, now+10s)</text><polygon fill="#181818" points="776.5,308.1504,786.5,312.1504,776.5,316.1504,780.5,312.1504" style="stroke:#181818;stroke-width:1.0;"/><line style="stroke:#181818;stroke-width:1.0;" x1="469" x2="782.5" y1="312.1504" y2="312.1504"/><text fill="#000000" font-family="sans-serif" font-size="13" lengthAdjust="spacing" textLength="222" x="476" y="307.4082">append(`SET k v` + `EXPIRE k 10`)</text><polygon fill="#181818" points="480,337.4609,470,341.4609,480,345.4609,476,341.4609" style="stroke:#181818;stroke-width:1.0;"/><line style="stroke:#181818;stroke-width:1.0;stroke-dasharray:2.0,2.0;" x1="474" x2="787.5" y1="341.4609" y2="341.4609"/><text fill="#000000" font-family="sans-serif" font-size="13" lengthAdjust="spacing" textLength="153" x="486" y="336.7188">ack (buffered per policy)</text><polygon fill="#181818" points="309,366.7715,299,370.7715,309,374.7715,305,370.7715" style="stroke:#181818;stroke-width:1.0;"/><line style="stroke:#181818;stroke-width:1.0;stroke-dasharray:2.0,2.0;" x1="303" x2="463" y1="370.7715" y2="370.7715"/><text fill="#000000" font-family="sans-serif" font-size="13" lengthAdjust="spacing" textLength="18" x="315" y="366.0293">OK</text><polygon fill="#181818" points="205,396.082,195,400.082,205,404.082,201,400.082" style="stroke:#181818;stroke-width:1.0;"/><line style="stroke:#181818;stroke-width:1.0;stroke-dasharray:2.0,2.0;" x1="199" x2="297" y1="400.082" y2="400.082"/><text fill="#000000" font-family="sans-serif" font-size="13" lengthAdjust="spacing" textLength="28" x="211" y="395.3398">+OK</text><polygon fill="#181818" points="39,425.3926,29,429.3926,39,433.3926,35,429.3926" style="stroke:#181818;stroke-width:1.0;"/><line style="stroke:#181818;stroke-width:1.0;stroke-dasharray:2.0,2.0;" x1="33" x2="193" y1="429.3926" y2="429.3926"/><text fill="#000000" font-family="sans-serif" font-size="13" lengthAdjust="spacing" textLength="28" x="45" y="424.6504">+OK</text><!--SRC=[NL51ReCm4Bpx5IjEe2HgejuuL8fQ8bMqJHGuH6ghui16iI0sDOQKMn_H5_ObNKEKX1viQMTchPcn4QP0U9PuKF3x_GCHVjOeK_GX2c8u2hE7E7vYZAT6QRWl14h3IgwDI4N9fG7d1StDIYkZKbKum2iWOAXu45N9JRf7tV5s70gYFTSPkEeeKOFQGLKeutNQZXcAGspfkHGxFeo697c5c6-BdhNE1_HykO1vMQBCJbu8OAnF1PCxQnryM0VHwXRcMlFsJRuwL8GpTd8w3PrWGzTiwhmpAwOT6uUM5feVa7K3WNqY7xIg3ResZvjxtXXGKhqrsZf5mmsU0lPosWiZMggGr6Del0jkStN41twLGhUMb-eucashAvMDvmFl0hg9_S0ScWH6a0IRrUCwe74sJJncTPChbppDmTtMknrgpA2aJoXL8TBs_FGbvZ9a6VvptuS-rpSYJTSD8QTgU_0F]--></g></svg>