<?xml version="1.0" encoding="us-ascii" standalone="no"?><svg xmlns="http://www.w3.org/2000/svg" xmlns:xlink="http://www.w3.org/1999/xlink" contentStyleType="text/css" height="559px" preserveAspectRatio="none" style="width:949px;height:559px;background:#FFFFFF;" version="1.1" viewBox="0 0 949 559" width="949px" zoomAndPan="magnify"><defs/><g><text fill="#000000" font-family="sans-serif" font-size="14" font-weight="bold" lengthAdjust="spacing" textLength="303" x="322" y="28.5352">Mnemo &#8212; Sequence: FT.SEARCH with KNN</text><line style="stroke:#181818;stroke-width:0.5;stroke-dasharray:5.0,5.0;" x1="28" x2="28" y1="118.9766" y2="478.0137"/><line style="stroke:#181818;stroke-width:0.5;stroke-dasharray:5.0,5.0;" x1="336.5" x2="336.5" y1="118.9766" y2="478.0137"/><line style="stroke:#181818;stroke-width:0.5;stroke-dasharray:5.0,5.0;" x1="432" x2="432" y1="118.9766" y2="478.0137"/><line style="stroke:#181818;stroke-width:0.5;stroke-dasharray:5.0,5.0;" x1="534" x2="534" y1="118.9766" y2="478.0137"/><line style="stroke:#181818;stroke-width:0.5;stroke-dasharray:5.0,5.0;" x1="682" x2="682" y1="118.9766" y2="478.0137"/><line style="stroke:#181818;stroke-width:0.5;stroke-dasharray:5.0,5.0;" x1="805" x2="805" y1="118.9766" y2="478.0137"/><line style="stroke:#181818;stroke-width:0.5;stroke-dasharray:5.0,5.0;" x1="904" x2="904" y1="118.9766" y2="478.0137"/><text fill="#000000" font-family="sans-serif" font-size="14" lengthAdjust="spacing" textLength="40" x="5" y="116.0234">Client</text><ellipse cx="28" cy="50.9883" fill="#E2E2F0" rx="8" ry="8" style="stroke:#181818;stroke-width:0.5;"/><path d="M28,58.9883 L28,85.9883 M15,66.9883 L41,66.9883 M28,85.9883 L15,100.9883 M28,85.9883 L41,100.9883 " fill="none" style="stroke:#181818;stroke-width:0.5;"/><text fill="#000000" font-family="sans-serif" font-size="14" lengthAdjust="spacing" textLength="40" x="5" y="490.5488">Client</text><ellipse cx="28" cy="502.002" fill="#E2E2F0" rx="8" ry="8" style="stroke:#181818;stroke-width:0.5;"/><path d="M28,510.002 L28,537.002 M15,518.002 L41,518.002 M28,537.002 L15,552.002 M28,537.002 L41,552.002 " fill="none" style="stroke:#181818;stroke-width:0.5;"/><rect fill="#E2E2F0" height="30.4883" rx="2.5" ry="2.5" style="stroke:#181818;stroke-width:0.5;" width="37" x="318.5" y="87.4883"/><text fill="#000000" font-family="sans-serif" font-size="14" lengthAdjust="spacing" textLength="23" x="325.5" y="108.0234">Net</text><rect fill="#E2E2F0" height="30.4883" rx="2.5" ry="2.5" style="stroke:#181818;stroke-width:0.5;" width="37" x="318.5" y="477.0137"/><text fill="#000000" font-family="sans-serif" font-size="14" lengthAdjust="spacing" textLength="23" x="325.5" y="497.5488">Net</text><rect fill="#E2E2F0" height="30.4883" rx="2.5" ry="2.5" style="stroke:#181818;stroke-width:0.5;" width="44" x="410" y="87.4883"/><text fill="#000000" font-family="sans-serif" font-size="14" lengthAdjust="spacing" textLength="30" x="417" y="108.0234">Disp</text><rect fill="#E2E2F0" height="30.4883" rx="2.5" ry="2.5" style="stroke:#181818;stroke-width:0.5;" width="44" x="410" y="477.0137"/><text fill="#000000" font-family="sans-serif" font-size="14" lengthAdjust="spacing" textLength="30" x="417" y="497.5488">Disp</text><rect fill="#E2E2F0" height="30.4883" rx="2.5" ry="2.5" style="stroke:#181818;stroke-width:0.5;" width="116" x="476" y="87.4883"/><text fill="#000000" font-family="sans-serif" font-size="14" lengthAdjust="spacing" textLength="102" x="483" y="108.0234">Search Planner</text><rect fill="#E2E2F0" height="30.4883" rx="2.5" ry="2.5" style="stroke:#181818;stroke-width:0.5;" width="116" x="476" y="477.0137"/><text fill="#000000" font-family="sans-serif" font-size="14" lengthAdjust="spacing" textLength="102" x="483" y="497.5488">Search Planner</text><rect fill="#E2E2F0" height="30.4883" rx="2.5" ry="2.5" style="stroke:#181818;stroke-width:0.5;" width="124" x="620" y="87.4883"/><text fill="#000000" font-family="sans-serif" font-size="14" lengthAdjust="spacing" textLength="110" x="627" y="108.0234">Index Segments</text><rect fill="#E2E2F0" height="30.4883" rx="2.5" ry="2.5" style="stroke:#181818;stroke-width:0.5;" width="124" x="620" y="477.0137"/><text fill="#000000" font-family="sans-serif" font-size="14" lengthAdjust="spacing" textLength="110" x="627" y="497.5488">Index Segments</text><rect fill="#E2E2F0" height="30.4883" rx="2.5" ry="2.5" style="stroke:#181818;stroke-width:0.5;" width="102" x="754" y="87.4883"/><text fill="#000000" font-family="sans-serif" font-size="14" lengthAdjust="spacing" textLength="88" x="761" y="108.0234">Vector HNSW</text><rect fill="#E2E2F0" height="30.4883" rx="2.5" ry="2.5" style="stroke:#181818;stroke-width:0.5;" width="102" x="754" y="477.0137"/><text fill="#000000" font-family="sans-serif" font-size="14" lengthAdjust="spacing" textLength="88" x="761" y="497.5488">Vector HNSW</text><rect fill="#E2E2F0" height="30.4883" rx="2.5" ry="2.5" style="stroke:#181818;stroke-width:0.5;" width="77" x="866" y="87.4883"/><text fill="#000000" font-family="sans-serif" font-size="14" lengthAdjust="spacing" textLength="63" x="873" y="108.0234">Keyspace</text><rect fill="#E2E2F0" height="30.4883" rx="2.5" ry="2.5" style="stroke:#181818;stroke-width:0.5;" width="77" x="866" y="477.0137"/><text fill="#000000" font-family="sans-serif" font-size="14" lengthAdjust="spacing" textLength="63" x="873" y="497.5488">Keyspace</text><polygon fill="#181818" points="325,161.5977,335,165.5977,325,169.5977,329,165.5977" style="stroke:#181818;stroke-width:1.0;"/><line style="stroke:#181818;stroke-width:1.0;" x1="28" x2="331" y1="165.5977" y2="165.5977"/><text fill="#000000" font-family="sans-serif" font-size="13" lengthAdjust="spacing" textLength="37" x="35" y="145.5449">RESP3</text><text fill="#000000" font-family="sans-serif" font-size="13" lengthAdjust="spacing" textLength="285" x="35" y="160.8555">FT.SEARCH idx \"query\" KNN 10 @vec $qvec</text><polygon fill="#181818" points="420,190.9082,430,194.9082,420,198.9082,424,194.9082" style="stroke:#181818;stroke-width:1.0;"/><line style="stroke:#181818;stroke-width:1.0;" x1="337" x2="426" y1="194.9082" y2="194.9082"/><text fill="#000000" font-family="sans-serif" font-size="13" lengthAdjust="spacing" textLength="38" x="344" y="190.166">Frame</text><polygon fill="#181818" points="522,220.2188,532,224.2188,522,228.2188,526,224.2188" style="stroke:#181818;stroke-width:1.0;"/><line style="stroke:#181818;stroke-width:1.0;" x1="432" x2="528" y1="224.2188" y2="224.2188"/><text fill="#000000" font-family="sans-serif" font-size="13" lengthAdjust="spacing" textLength="78" x="439" y="219.4766">parse &amp; plan</text><polygon fill="#181818" points="670,264.8398,680,268.8398,670,272.8398,674,268.8398" style="stroke:#181818;stroke-width:1.0;"/><line style="stroke:#181818;stroke-width:1.0;" x1="534" x2="676" y1="268.8398" y2="268.8398"/><text fill="#000000" font-family="sans-serif" font-size="13" lengthAdjust="spacing" textLength="124" x="541" y="248.7871">fetch term postings</text><text fill="#000000" font-family="sans-serif" font-size="13" lengthAdjust="spacing" textLength="50" x="541" y="264.0977">&amp; filters</text><polygon fill="#181818" points="793,294.1504,803,298.1504,793,302.1504,797,298.1504" style="stroke:#181818;stroke-width:1.0;"/><line style="stroke:#181818;stroke-width:1.0;" x1="534" x2="799" y1="298.1504" y2="298.1504"/><text fill="#000000" font-family="sans-serif" font-size="13" lengthAdjust="spacing" textLength="159" x="541" y="293.4082">knn(qvec, topK, efSearch)</text><polygon fill="#181818" points="545,323.4609,535,327.4609,545,331.4609,541,327.4609" style="stroke:#181818;stroke-width:1.0;"/><line style="stroke:#181818;stroke-width:1.0;stroke-dasharray:2.0,2.0;" x1="539" x2="804" y1="327.4609" y2="327.4609"/><text fill="#000000" font-family="sans-serif" font-size="13" lengthAdjust="spacing" textLength="143" x="551" y="322.7188">candidate ids + scores</text><polygon fill="#181818" points="892.5,368.082,902.5,372.082,892.5,376.082,896.5,372.082" style="stroke:#181818;stroke-width:1.0;"/><line style="stroke:#181818;stroke-width:1.0;" x1="534" x2="898.5" y1="372.082" y2="372.082"/><text fill="#000000" font-family="sans-serif" font-size="13" lengthAdjust="spacing" textLength="154" x="541" y="352.0293">apply filters, fetch fields</text><text fill="#000000" font-family="sans-serif" font-size="13" lengthAdjust="spacing" textLength="69" x="541" y="367.3398">(sort/limit)</text><polygon fill="#181818" points="443,397.3926,433,401.3926,443,405.3926,439,401.3926" style="stroke:#181818;stroke-width:1.0;"/><line style="stroke:#181818;stroke-width:1.0;stroke-dasharray:2.0,2.0;" x1="437" x2="533" y1="401.3926" y2="401.3926"/><text fill="#000000" font-family="sans-serif" font-size="13" lengthAdjust="spacing" textLength="70" x="449" y="396.6504">result rows</text><polygon fill="#181818" points="348,426.7031,338,430.7031,348,434.7031,344,430.7031" style="stroke:#181818;stroke-width:1.0;"/><line style="stroke:#181818;stroke-width:1.0;stroke-dasharray:2.0,2.0;" x1="342" x2="431" y1="430.7031" y2="430.7031"/><text fill="#000000" font-family="sans-serif" font-size="13" lengthAdjust="spacing" textLength="71" x="354" y="425.9609">Array(rows)</text><polygon fill="#181818" points="39,456.0137,29,460.0137,39,464.0137,35,460.0137" style="stroke:#181818;stroke-width:1.0;"/><line style="stroke:#181818;stroke-width:1.0;stroke-dasharray:2.0,2.0;" x1="33" x2="336" y1="460.0137" y2="460.0137"/><text fill="#000000" font-family="sans-serif" font-size="13" lengthAdjust="spacing" textLength="43" x="45" y="455.2715">results</text><!--SRC=[LL3BJiCm4BpxArOHgbhHyX2t7X1LQLKK4LK4mIKNozcq5exZsYvjRdm4NyYNi4uJIYwMTtPcTsQzz0hXMMDPmS_NDwIuswCME8NbwrMwcBtCLt2GVWjnaZ36XQyip9L4xPdXraiX3TSU4kpNZzAP7X2boAtOmbfnhT56m5ttx_EUT8v7ih4fQOThU5IuFkaD6oEh97rl6E7JPyHOEyC5DkquPUna6YRtmIjCuMMHhkyoVKufyoDa4QMtTHQ5k71x0m-VAE1YHoyBCbA7P2HVMbuYQme2soI4amc7C0132EjWOeGCr2xGqn4ysX9CvRpK6vVf0HHI4UR-2q8a4dneFGphn-0h4uy1YzCXHwmXJ7hB1TUvpBb72kFW4foeBFQcnYdHk36gxdQEMq-5H9MJcQ6hhBzMifH-T5QUWzF0lV9WguDhu_-TT6OjhuUXCpfTYphjsJkTOxy0]--></g></svg>