<?xml version="1.0" encoding="us-ascii" standalone="no"?><svg xmlns="http://www.w3.org/2000/svg" xmlns:xlink="http://www.w3.org/1999/xlink" contentStyleType="text/css" height="468px" preserveAspectRatio="none" style="width:571px;height:468px;background:#FFFFFF;" version="1.1" viewBox="0 0 571 468" width="571px" zoomAndPan="magnify"><defs/><g><text fill="#000000" font-family="sans-serif" font-size="14" font-weight="bold" lengthAdjust="spacing" textLength="339" x="117" y="28.5352">Mnemo &#8212; Sequence: Replication Partial Resync</text><rect fill="none" height="266.75" style="stroke:#000000;stroke-width:1.5;" width="554" x="10" y="149.5977"/><line style="stroke:#181818;stroke-width:0.5;stroke-dasharray:5.0,5.0;" x1="51" x2="51" y1="73.9766" y2="433.3477"/><line style="stroke:#181818;stroke-width:0.5;stroke-dasharray:5.0,5.0;" x1="284.5" x2="284.5" y1="73.9766" y2="433.3477"/><line style="stroke:#181818;stroke-width:0.5;stroke-dasharray:5.0,5.0;" x1="415" x2="415" y1="73.9766" y2="433.3477"/><line style="stroke:#181818;stroke-width:0.5;stroke-dasharray:5.0,5.0;" x1="506" x2="506" y1="73.9766" y2="433.3477"/><rect fill="#E2E2F0" height="30.4883" rx="2.5" ry="2.5" style="stroke:#181818;stroke-width:0.5;" width="63" x="20" y="42.4883"/><text fill="#000000" font-family="sans-serif" font-size="14" lengthAdjust="spacing" textLength="49" x="27" y="63.0234">Replica</text><rect fill="#E2E2F0" height="30.4883" rx="2.5" ry="2.5" style="stroke:#181818;stroke-width:0.5;" width="63" x="20" y="432.3477"/><text fill="#000000" font-family="sans-serif" font-size="14" lengthAdjust="spacing" textLength="49" x="27" y="452.8828">Replica</text><rect fill="#E2E2F0" height="30.4883" rx="2.5" ry="2.5" style="stroke:#181818;stroke-width:0.5;" width="66" x="251.5" y="42.4883"/><text fill="#000000" font-family="sans-serif" font-size="14" lengthAdjust="spacing" textLength="52" x="258.5" y="63.0234">Primary</text><rect fill="#E2E2F0" height="30.4883" rx="2.5" ry="2.5" style="stroke:#181818;stroke-width:0.5;" width="66" x="251.5" y="432.3477"/><text fill="#000000" font-family="sans-serif" font-size="14" lengthAdjust="spacing" textLength="52" x="258.5" y="452.8828">Primary</text><rect fill="#E2E2F0" height="30.4883" rx="2.5" ry="2.5" style="stroke:#181818;stroke-width:0.5;" width="67" x="382" y="42.4883"/><text fill="#000000" font-family="sans-serif" font-size="14" lengthAdjust="spacing" textLength="53" x="389" y="63.0234">Backlog</text><rect fill="#E2E2F0" height="30.4883" rx="2.5" ry="2.5" style="stroke:#181818;stroke-width:0.5;" width="67" x="382" y="432.3477"/><text fill="#000000" font-family="sans-serif" font-size="14" lengthAdjust="spacing" textLength="53" x="389" y="452.8828">Backlog</text><rect fill="#E2E2F0" height="30.4883" rx="2.5" ry="2.5" style="stroke:#181818;stroke-width:0.5;" width="95" x="459" y="42.4883"/><text fill="#000000" font-family="sans-serif" font-size="14" lengthAdjust="spacing" textLength="81" x="466" y="63.0234">AOF Stream</text><rect fill="#E2E2F0" height="30.4883" rx="2.5" ry="2.5" style="stroke:#181818;stroke-width:0.5;" width="95" x="459" y="432.3477"/><text fill="#000000" font-family="sans-serif" font-size="14" lengthAdjust="spacing" textLength="81" x="466" y="452.8828">AOF Stream</text><polygon fill="#181818" points="272.5,101.2871,282.5,105.2871,272.5,109.2871,276.5,105.2871" style="stroke:#181818;stroke-width:1.0;"/><line style="stroke:#181818;stroke-width:1.0;" x1="51.5" x2="278.5" y1="105.2871" y2="105.2871"/><text fill="#000000" font-family="sans-serif" font-size="13" lengthAdjust="spacing" textLength="182" x="58.5" y="100.5449">PSYNC &lt;replid&gt; &lt;offset=O&gt;</text><polygon fill="#181818" points="403.5,130.5977,413.5,134.5977,403.5,138.5977,407.5,134.5977" style="stroke:#181818;stroke-width:1.0;"/><line style="stroke:#181818;stroke-width:1.0;" x1="284.5" x2="409.5" y1="134.5977" y2="134.5977"/><text fill="#000000" font-family="sans-serif" font-size="13" lengthAdjust="spacing" textLength="107" x="291.5" y="129.8555">check window(O)</text><path d="M10,149.5977 L72,149.5977 L72,156.9082 L62,166.9082 L10,166.9082 L10,149.5977 " fill="#EEEEEE" style="stroke:#000000;stroke-width:1.5;"/><rect fill="none" height="266.75" style="stroke:#000000;stroke-width:1.5;" width="554" x="10" y="149.5977"/><text fill="#000000" font-family="sans-serif" font-size="13" font-weight="bold" lengthAdjust="spacing" textLength="17" x="25" y="163.166">alt</text><text fill="#000000" font-family="sans-serif" font-size="11" font-weight="bold" lengthAdjust="spacing" textLength="80" x="87" y="162.2324">[O in backlog]</text><polygon fill="#181818" points="295.5,184.2188,285.5,188.2188,295.5,192.2188,291.5,188.2188" style="stroke:#181818;stroke-width:1.0;"/><line style="stroke:#181818;stroke-width:1.0;stroke-dasharray:2.0,2.0;" x1="289.5" x2="414.5" y1="188.2188" y2="188.2188"/><text fill="#000000" font-family="sans-serif" font-size="13" lengthAdjust="spacing" textLength="101" x="301.5" y="183.4766">ok, start from O</text><polygon fill="#181818" points="62.5,213.5293,52.5,217.5293,62.5,221.5293,58.5,217.5293" style="stroke:#181818;stroke-width:1.0;"/><line style="stroke:#181818;stroke-width:1.0;" x1="56.5" x2="283.5" y1="217.5293" y2="217.5293"/><text fill="#000000" font-family="sans-serif" font-size="13" lengthAdjust="spacing" textLength="77" x="68.5" y="212.7871">+CONTINUE</text><polygon fill="#181818" points="494.5,242.8398,504.5,246.8398,494.5,250.8398,498.5,246.8398" style="stroke:#181818;stroke-width:1.0;"/><line style="stroke:#181818;stroke-width:1.0;" x1="284.5" x2="500.5" y1="246.8398" y2="246.8398"/><text fill="#000000" font-family="sans-serif" font-size="13" lengthAdjust="spacing" textLength="133" x="291.5" y="242.0977">stream deltas from O</text><polygon fill="#181818" points="62.5,272.1504,52.5,276.1504,62.5,280.1504,58.5,276.1504" style="stroke:#181818;stroke-width:1.0;"/><line style="stroke:#181818;stroke-width:1.0;stroke-dasharray:2.0,2.0;" x1="56.5" x2="505.5" y1="276.1504" y2="276.1504"/><text fill="#000000" font-family="sans-serif" font-size="13" lengthAdjust="spacing" textLength="50" x="68.5" y="271.4082">AOF tail</text><line style="stroke:#000000;stroke-width:1.0;stroke-dasharray:2.0,2.0;" x1="10" x2="564" y1="285.1504" y2="285.1504"/><text fill="#000000" font-family="sans-serif" font-size="11" font-weight="bold" lengthAdjust="spacing" textLength="61" x="15" y="295.7852">[O too old]</text><polygon fill="#181818" points="62.5,316.416,52.5,320.416,62.5,324.416,58.5,320.416" style="stroke:#181818;stroke-width:1.0;"/><line style="stroke:#181818;stroke-width:1.0;" x1="56.5" x2="283.5" y1="320.416" y2="320.416"/><text fill="#000000" font-family="sans-serif" font-size="13" lengthAdjust="spacing" textLength="209" x="68.5" y="315.6738">+FULLRESYNC (replid, newOffset)</text><polygon fill="#181818" points="62.5,345.7266,52.5,349.7266,62.5,353.7266,58.5,349.7266" style="stroke:#181818;stroke-width:1.0;"/><line style="stroke:#181818;stroke-width:1.0;" x1="56.5" x2="283.5" y1="349.7266" y2="349.7266"/><text fill="#000000" font-family="sans-serif" font-size="13" lengthAdjust="spacing" textLength="87" x="68.5" y="344.9844">RDB snapshot</text><polygon fill="#181818" points="494.5,375.0371,504.5,379.0371,494.5,383.0371,498.5,379.0371" style="stroke:#181818;stroke-width:1.0;"/><line style="stroke:#181818;stroke-width:1.0;" x1="284.5" x2="500.5" y1="379.0371" y2="379.0371"/><text fill="#000000" font-family="sans-serif" font-size="13" lengthAdjust="spacing" textLength="161" x="291.5" y="374.2949">live AOF stream after RDB</text><polygon fill="#181818" points="62.5,404.3477,52.5,408.3477,62.5,412.3477,58.5,408.3477" style="stroke:#181818;stroke-width:1.0;"/><line style="stroke:#181818;stroke-width:1.0;stroke-dasharray:2.0,2.0;" x1="56.5" x2="505.5" y1="408.3477" y2="408.3477"/><text fill="#000000" font-family="sans-serif" font-size="13" lengthAdjust="spacing" textLength="65" x="68.5" y="403.6055">follow live</text><!--SRC=[LOz1Ri8m44NtFiM85QXm0KIH4WfI9OgZK1PTkiwaM3YUr9usOjT3z8GzIHr3AxASUN_-_yE6BSAJmuRWv-iRzlZ-WKxZ74fihT6A3Jaeb6UZRDo5izD2jFsiJQiSm-Wg784AK0vHuKsZ_3cXOeXofK-MtXBAXoYJ6zYpHzKacWbHmcm91SoXsB_iLh3mVMIrX0NLTK2-bqjHz98yIlGHzGawuohgnd8Yb6MGO1oyNX85HDdiwaUdAGIEuL1xQa16c8pAoEvMSlVyk3ki_vPPN8RK2ogq7Alz7sN9iR_goxCoLg0D68EP2CXM0-FDORijr-cLyUMLAJZiP7fcSYij7t88JhNXI7nRmvfFJ57NFgfczBrwqAKcQwbBOe6k4hy0]--></g></svg>